<svg width="24.000366" height="22.828735" viewBox="0 0 24.0004 22.8287" fill="none" xmlns="http://www.w3.org/2000/svg" xmlns:xlink="http://www.w3.org/1999/xlink">
	<desc>
			Created with Pixso.
	</desc>
	<defs/>
	<path id="Vector" d="M20.43 11.57L20.43 11.57C20.94 11.04 21.34 10.41 21.61 9.72C21.89 8.99 22.02 8.21 21.99 7.43C21.96 6.65 21.77 5.89 21.43 5.19C21.09 4.48 20.6 3.86 20.01 3.35C19.41 2.84 18.72 2.47 17.97 2.24C17.23 2.01 16.44 1.94 15.66 2.04C14.89 2.13 14.14 2.38 13.46 2.78C12.91 3.1 12.41 3.52 12 4.02C11.58 3.52 11.08 3.1 10.53 2.78C9.85 2.38 9.1 2.13 8.33 2.04C7.55 1.94 6.76 2.01 6.02 2.24C5.27 2.47 4.58 2.84 3.98 3.35C3.39 3.86 2.9 4.48 2.56 5.19C2.22 5.89 2.03 6.65 2 7.43C1.97 8.21 2.1 8.99 2.38 9.72C2.67 10.45 3.1 11.11 3.65 11.66L12 20L20.43 11.57Z" fill="#BB8C5F" fill-opacity="1.000000" fill-rule="evenodd"/>
	<path id="Vector" d="M20.43 11.57C20.94 11.04 21.34 10.41 21.61 9.72C21.89 8.99 22.02 8.21 21.99 7.43C21.96 6.65 21.77 5.89 21.43 5.19C21.09 4.48 20.6 3.86 20.01 3.35C19.41 2.84 18.72 2.47 17.97 2.24C17.23 2.01 16.44 1.94 15.66 2.04C14.9 2.13 14.16 2.37 13.49 2.76C13.48 2.77 13.47 2.77 13.46 2.78C12.91 3.1 12.41 3.52 12 4.02C11.58 3.52 11.08 3.1 10.53 2.78C10.52 2.77 10.51 2.77 10.5 2.76C9.84 2.37 9.09 2.13 8.33 2.04C7.55 1.94 6.76 2.01 6.02 2.24C5.27 2.47 4.58 2.84 3.98 3.35C3.39 3.86 2.9 4.48 2.56 5.19C2.22 5.89 2.03 6.65 2 7.43C1.97 8.21 2.1 8.99 2.38 9.72C2.67 10.45 3.1 11.11 3.65 11.66L12 20L20.43 11.57L20.43 11.57ZM12 1.34Q12.22 1.19 12.45 1.05Q13.14 0.64 13.89 0.4Q14.63 0.14 15.43 0.05Q16.22 -0.04 17 0.02Q17.79 0.09 18.55 0.32Q19.32 0.56 20.01 0.93Q20.7 1.31 21.31 1.83Q21.92 2.35 22.4 2.97Q22.88 3.59 23.23 4.31Q23.58 5.03 23.77 5.79Q23.96 6.55 23.99 7.35Q24.02 8.15 23.89 8.93Q23.76 9.7 23.47 10.45Q23.19 11.15 22.79 11.78Q22.62 12.05 22.43 12.3L22.43 12.4L12 22.82L2.24 13.07Q1.67 12.51 1.24 11.85Q0.81 11.19 0.52 10.45Q0.23 9.7 0.1 8.93Q-0.03 8.16 0 7.35Q0.03 6.55 0.22 5.79Q0.41 5.03 0.76 4.31Q1.11 3.59 1.59 2.97Q2.07 2.35 2.68 1.83Q3.29 1.31 3.98 0.93Q4.67 0.56 5.44 0.32Q6.2 0.09 6.99 0.02Q7.77 -0.04 8.56 0.05Q9.36 0.14 10.1 0.39Q10.85 0.64 11.54 1.05Q11.77 1.19 12 1.34Z" fill="#524336" fill-opacity="1.000000" fill-rule="evenodd"/>
</svg>
