<svg width="19.599121" height="17.647339" viewBox="0 0 19.5991 17.6473" fill="none" xmlns="http://www.w3.org/2000/svg" xmlns:xlink="http://www.w3.org/1999/xlink">
	<desc>
			Created with Pixso.
	</desc>
	<defs/>
	<path id="Vector" d="M18.06 9.38L18.06 9.38C18.56 8.86 18.95 8.24 19.21 7.57C19.49 6.85 19.62 6.09 19.59 5.33C19.56 4.56 19.37 3.81 19.04 3.12C18.7 2.43 18.23 1.82 17.65 1.32C17.06 0.83 16.39 0.46 15.65 0.23C14.92 0.01 14.15 -0.06 13.39 0.03C12.63 0.12 11.9 0.37 11.23 0.76C10.69 1.08 10.2 1.49 9.79 1.98C9.39 1.49 8.9 1.08 8.35 0.76C7.69 0.37 6.96 0.12 6.2 0.03C5.44 -0.06 4.67 0.01 3.94 0.23C3.2 0.46 2.52 0.83 1.94 1.32C1.36 1.82 0.89 2.43 0.55 3.12C0.22 3.81 0.03 4.56 0 5.33C-0.03 6.09 0.1 6.85 0.38 7.57C0.66 8.28 1.08 8.93 1.62 9.47L9.79 17.64L18.06 9.38Z" fill="#BB8C5F" fill-opacity="1.000000" fill-rule="evenodd"/>
</svg>
