<svg width="191.750000" height="63.000000" viewBox="0 0 191.75 63" fill="none" xmlns="http://www.w3.org/2000/svg" xmlns:xlink="http://www.w3.org/1999/xlink">
	<desc>
			Created with Pixso.
	</desc>
	<defs/>
	<path id="Tattoo shop" d="M49.84 54.07L51.2 57.36L52.07 57.36L47.74 47.18L43.42 57.36L44.29 57.36L45.63 54.07L49.84 54.07ZM75.05 50.47C74.8 51.08 74.68 51.74 74.68 52.46C74.68 53.18 74.8 53.85 75.05 54.46C75.29 55.07 75.63 55.6 76.07 56.06C76.51 56.51 77.02 56.86 77.61 57.11C78.21 57.36 78.86 57.49 79.56 57.49Q80.61 57.49 81.49 57.11C82.08 56.86 82.6 56.51 83.04 56.06C83.48 55.6 83.82 55.07 84.06 54.46C84.31 53.85 84.43 53.18 84.43 52.46C84.43 51.74 84.31 51.08 84.06 50.47Q83.76 49.7 83.25 49.1Q83.15 48.98 83.04 48.88C82.6 48.42 82.08 48.06 81.49 47.81C80.9 47.56 80.26 47.43 79.56 47.43C78.86 47.43 78.21 47.56 77.61 47.81C77.02 48.06 76.51 48.42 76.07 48.88C75.63 49.32 75.29 49.86 75.05 50.47ZM89.51 50.47C89.27 51.08 89.15 51.74 89.15 52.46C89.15 53.18 89.27 53.85 89.51 54.46C89.75 55.07 90.1 55.6 90.53 56.06C90.97 56.51 91.49 56.86 92.07 57.11C92.67 57.36 93.32 57.49 94.02 57.49Q95.07 57.49 95.95 57.11C96.55 56.86 97.07 56.51 97.51 56.06C97.94 55.6 98.29 55.07 98.53 54.46C98.77 53.85 98.89 53.18 98.89 52.46C98.89 51.74 98.77 51.08 98.53 50.47Q98.22 49.7 97.71 49.1Q97.61 48.98 97.51 48.88C97.07 48.42 96.55 48.06 95.95 47.81C95.36 47.56 94.72 47.43 94.02 47.43C93.32 47.43 92.67 47.56 92.07 47.81C91.49 48.06 90.97 48.42 90.53 48.88C90.1 49.32 89.75 49.86 89.51 50.47ZM112.51 55.67C112.29 55.32 112.1 54.94 111.94 54.53L111.31 54.92C111.47 55.38 111.69 55.81 111.98 56.2C112.27 56.58 112.63 56.89 113.06 57.14C113.5 57.37 114 57.49 114.56 57.49Q115.28 57.49 115.87 57.21Q115.94 57.18 116 57.15C116.43 56.93 116.77 56.61 117.02 56.21C117.27 55.81 117.4 55.34 117.4 54.81Q117.4 53.94 117.02 53.38C116.77 53.01 116.45 52.71 116.07 52.49C115.7 52.26 115.33 52.09 114.96 51.96C114.17 51.68 113.57 51.37 113.17 51.03Q112.92 50.81 112.77 50.54Q112.58 50.18 112.58 49.72C112.58 49.28 112.74 48.91 113.05 48.62C113.35 48.33 113.79 48.18 114.36 48.18C114.79 48.18 115.15 48.26 115.44 48.43C115.73 48.59 115.97 48.79 116.15 49.03C116.34 49.27 116.49 49.52 116.6 49.77L117.27 49.39C117.14 49.08 116.95 48.77 116.7 48.47C116.45 48.17 116.13 47.92 115.75 47.73C115.38 47.53 114.93 47.43 114.4 47.43C113.89 47.43 113.43 47.54 113.03 47.74Q112.65 47.93 112.37 48.23Q112.23 48.38 112.11 48.57Q112.07 48.63 112.04 48.69Q111.77 49.18 111.77 49.81C111.77 50.23 111.85 50.59 112.01 50.89C112.18 51.19 112.39 51.45 112.65 51.66C112.92 51.87 113.2 52.04 113.49 52.19C113.8 52.33 114.1 52.46 114.38 52.56C114.75 52.7 115.1 52.86 115.44 53.05C115.79 53.23 116.07 53.46 116.28 53.75C116.5 54.04 116.6 54.42 116.6 54.9Q116.6 55.39 116.4 55.77Q116.27 56.03 116.06 56.24Q116 56.29 115.95 56.34Q115.43 56.76 114.57 56.76Q113.86 56.76 113.35 56.46C113.02 56.27 112.74 56 112.51 55.67ZM135.63 50.47C135.39 51.08 135.26 51.74 135.26 52.46C135.26 53.18 135.39 53.85 135.63 54.46C135.87 55.07 136.21 55.6 136.65 56.06C137.09 56.51 137.6 56.86 138.19 57.11C138.79 57.36 139.44 57.49 140.14 57.49C140.84 57.49 141.48 57.36 142.07 57.11C142.67 56.86 143.18 56.51 143.62 56.06C144.06 55.6 144.4 55.07 144.64 54.46C144.89 53.85 145.01 53.18 145.01 52.46C145.01 51.74 144.89 51.08 144.64 50.47Q144.34 49.7 143.83 49.1Q143.73 48.98 143.62 48.88C143.18 48.42 142.67 48.06 142.07 47.81C141.48 47.56 140.84 47.43 140.14 47.43Q139.12 47.43 138.24 47.79Q138.22 47.8 138.19 47.81C137.6 48.06 137.09 48.42 136.65 48.88C136.21 49.32 135.87 49.86 135.63 50.47ZM35.07 47.56L35.07 48.29L37.64 48.29L37.64 57.36L38.41 57.36L38.41 48.29L40.99 48.29L40.99 47.56L35.07 47.56ZM54.9 47.56L54.9 48.29L57.48 48.29L57.48 57.36L58.25 57.36L58.25 48.29L60.83 48.29L60.83 47.56L54.9 47.56ZM65.14 47.56L65.14 48.29L67.72 48.29L67.72 57.36L68.49 57.36L68.49 48.29L71.07 48.29L71.07 47.56L65.14 47.56ZM123.48 47.56L122.71 47.56L122.71 57.36L123.48 57.36L123.48 52.39L129.21 52.39L129.21 57.36L129.99 57.36L129.99 47.56L129.21 47.56L129.21 51.66L123.48 51.66L123.48 47.56ZM152.58 47.56L150.29 47.56L150.29 57.36L151.06 57.36L151.06 53.36L152.58 53.36C153.2 53.36 153.75 53.24 154.22 53.01C154.71 52.77 155.09 52.44 155.37 52.01Q155.41 51.96 155.44 51.9Q155.79 51.28 155.79 50.46Q155.79 49.57 155.39 48.93Q155.38 48.92 155.37 48.9C155.09 48.47 154.71 48.14 154.22 47.91C153.75 47.68 153.2 47.56 152.58 47.56ZM76.01 54.64C75.67 54 75.5 53.27 75.5 52.46C75.5 51.64 75.67 50.91 76.01 50.28Q76.35 49.66 76.85 49.21Q77.13 48.96 77.46 48.76C78.07 48.39 78.77 48.2 79.56 48.2C80.34 48.2 81.03 48.39 81.64 48.76C82.26 49.13 82.74 49.63 83.08 50.28C83.43 50.91 83.6 51.64 83.6 52.46C83.6 53.27 83.43 54 83.08 54.64C82.74 55.29 82.26 55.8 81.64 56.17C81.03 56.53 80.34 56.72 79.56 56.72C78.77 56.72 78.07 56.53 77.46 56.17C76.85 55.8 76.37 55.29 76.01 54.64ZM90.48 54.64C90.13 54 89.96 53.27 89.96 52.46C89.96 51.64 90.13 50.91 90.48 50.28Q90.82 49.66 91.32 49.21Q91.59 48.96 91.92 48.76C92.54 48.39 93.24 48.2 94.02 48.2C94.8 48.2 95.5 48.39 96.11 48.76C96.72 49.13 97.2 49.63 97.55 50.28C97.89 50.91 98.07 51.64 98.07 52.46C98.07 53.27 97.89 54 97.55 54.64C97.2 55.29 96.72 55.8 96.11 56.17C95.5 56.53 94.8 56.72 94.02 56.72C93.24 56.72 92.54 56.53 91.92 56.17C91.31 55.8 90.83 55.29 90.48 54.64ZM136.59 54.64C136.25 54 136.08 53.27 136.08 52.46C136.08 51.64 136.25 50.91 136.59 50.28Q136.93 49.66 137.43 49.21Q137.71 48.96 138.03 48.76C138.65 48.39 139.35 48.2 140.14 48.2C140.92 48.2 141.62 48.39 142.22 48.76Q142.62 49 142.94 49.31Q143.37 49.72 143.66 50.28C144.01 50.91 144.18 51.64 144.18 52.46C144.18 53.27 144.01 54 143.66 54.64C143.32 55.29 142.84 55.8 142.22 56.17C141.62 56.53 140.92 56.72 140.14 56.72C139.35 56.72 138.65 56.53 138.03 56.17C137.43 55.8 136.95 55.29 136.59 54.64ZM151.06 48.29L152.58 48.29C153.3 48.29 153.89 48.47 154.33 48.85Q154.49 48.98 154.61 49.13Q155.01 49.64 155.01 50.46Q155.01 51.27 154.62 51.78Q154.5 51.95 154.33 52.08C153.89 52.45 153.3 52.63 152.58 52.63L151.06 52.63L151.06 48.29ZM45.94 53.34L47.74 48.96L49.55 53.34L45.94 53.34Z" fill="#BB8C5F" fill-opacity="1.000000" fill-rule="evenodd"/>
	<path id="Line 9" d="M5.25 37.5L186.5 37.5L188.87 35.12L191.75 38L188.87 40.87L186.5 38.5L5.25 38.5L2.87 40.87L0 38L2.87 35.12L5.25 37.5Z" fill="#BB8C5F" fill-opacity="1.000000" fill-rule="evenodd"/>
	<path id="mr. driskell" d="M119.08 26.26Q119.68 25.19 119.68 23.68Q119.68 22.31 119.15 21.35Q118.77 20.65 118.23 20.11Q118.03 19.9 117.8 19.72Q116.98 19.06 115.93 18.62Q114.88 18.16 113.86 17.77Q112.96 17.44 112.14 17.09Q111.31 16.73 110.68 16.28Q110.05 15.83 109.67 15.23Q109.3 14.62 109.3 13.78Q109.3 13.28 109.46 12.6Q109.51 12.43 109.57 12.25Q109.75 11.77 110.08 11.34Q110.53 10.76 111.29 10.35Q112.06 9.94 113.26 9.94Q115.33 9.94 116.5 10.5Q116.89 10.69 117.16 10.98Q117.69 11.58 117.73 12.62L118.03 12.62L118.03 9.53Q117.58 9.53 117.09 9.45Q116.62 9.37 116.11 9.26Q115.48 9.1 114.79 9Q114.1 8.9 113.32 8.9Q112.75 8.9 112.2 8.97Q111.63 9.05 111.08 9.21Q109.99 9.53 109.13 10.16Q108.88 10.35 108.65 10.56Q108.13 11.08 107.77 11.76Q107.26 12.74 107.26 14.05Q107.26 15.31 107.74 16.17Q107.96 16.56 108.24 16.9Q108.58 17.31 109 17.64Q109.78 18.26 110.77 18.68Q111.76 19.09 112.78 19.49Q113.68 19.85 114.55 20.21Q115.42 20.56 116.1 21.08Q116.68 21.52 117.07 22.09Q117.13 22.17 117.19 22.26Q117.61 22.94 117.61 23.93Q117.61 24.09 117.6 24.25Q117.55 24.86 117.33 25.46Q117.31 25.51 117.28 25.57Q117 26.25 116.44 26.82Q115.84 27.43 114.91 27.81Q113.98 28.18 112.69 28.18Q112.33 28.18 111.55 28.08Q110.77 27.98 109.99 27.62Q109.78 27.52 109.59 27.4Q109.06 27.07 108.63 26.58Q108.6 26.55 108.57 26.51Q108.04 25.85 108.04 24.76L107.74 24.76L107.74 28.18Q108.13 28.18 108.52 28.29Q108.91 28.39 109.39 28.55Q110.11 28.75 110.98 29Q111.85 29.24 113.05 29.24Q114.22 29.24 115.4 28.94Q116.54 28.65 117.45 28.03Q117.49 28.01 117.53 27.98Q117.73 27.84 117.92 27.68Q118.61 27.09 119.08 26.26ZM28.51 28.69L28.36 28.69L28.36 29L32.62 29L32.62 28.69L32.47 28.69Q32.37 28.69 32.28 28.66Q32.15 28.62 32.04 28.52Q31.87 28.34 31.73 28.09Q31.71 28.07 31.7 28.04Q31.59 27.82 31.54 27.57Q31.48 27.29 31.48 27.05L31.48 11.06Q31.48 10.85 31.54 10.57Q31.59 10.35 31.69 10.15Q31.71 10.11 31.73 10.07Q31.87 9.83 32.04 9.67Q32.15 9.57 32.27 9.53Q32.36 9.5 32.47 9.5L32.62 9.5L32.62 9.2L29.23 9.2L22.27 25.6L15.31 9.2L12.25 9.2L12.25 9.5L12.4 9.5Q12.46 9.5 12.51 9.51Q12.66 9.54 12.79 9.67Q12.97 9.83 13.09 10.07Q13.21 10.3 13.27 10.57Q13.33 10.85 13.33 11.06L13.33 27.05Q13.33 27.29 13.27 27.57Q13.21 27.85 13.09 28.09Q12.99 28.29 12.85 28.45Q12.82 28.49 12.79 28.52Q12.66 28.65 12.5 28.68Q12.45 28.69 12.4 28.69L12.25 28.69L12.25 29L15.52 29L15.52 28.69L15.37 28.69Q15.28 28.69 15.21 28.67Q15.07 28.63 14.95 28.52Q14.77 28.34 14.63 28.09Q14.5 27.85 14.44 27.57Q14.38 27.29 14.38 27.05L14.38 12.19L21.73 29.32L29.47 11.26L29.47 27.05Q29.47 27.29 29.41 27.57Q29.37 27.77 29.29 27.95Q29.25 28.02 29.21 28.09Q29.08 28.34 28.89 28.52Q28.76 28.65 28.61 28.68Q28.56 28.69 28.51 28.69ZM39.76 28.69L39.61 28.69Q39.5 28.69 39.41 28.66Q39.3 28.62 39.2 28.52Q39.04 28.34 38.9 28.09Q38.77 27.85 38.71 27.57Q38.65 27.29 38.65 27.05L38.65 18.82Q38.98 18.89 39.35 18.93Q39.73 18.98 40.06 19Q41.38 20.98 42.71 23.03Q44.05 25.06 45.4 27.05Q45.51 27.21 45.62 27.36Q46.07 27.94 46.68 28.41Q46.69 28.42 46.7 28.43Q47.46 29 48.64 29L49.93 29L49.93 28.69Q49.87 28.69 49.81 28.69Q49.54 28.67 49.28 28.53Q48.97 28.37 48.68 28.09Q48.4 27.82 48.15 27.49Q47.89 27.16 47.68 26.86Q46.9 25.63 46.09 24.48Q45.28 23.33 44.5 22.12L42.34 18.82Q43.3 18.65 44.16 18.27Q45.01 17.89 45.64 17.28Q45.71 17.22 45.77 17.15Q46.31 16.58 46.65 15.81Q47.02 14.95 47.02 13.81Q47.02 12.33 46.33 11.32Q45.96 10.78 45.39 10.37Q43.75 9.2 40.75 9.2L35.53 9.2L35.53 9.5L35.68 9.5Q35.71 9.5 35.75 9.5Q35.92 9.52 36.07 9.67Q36.25 9.83 36.38 10.07Q36.41 10.11 36.42 10.15Q36.53 10.35 36.58 10.57Q36.64 10.85 36.64 11.06L36.64 27.05Q36.64 27.29 36.58 27.57Q36.52 27.82 36.42 28.04Q36.4 28.07 36.38 28.09Q36.25 28.34 36.07 28.52Q35.91 28.67 35.74 28.69Q35.71 28.69 35.68 28.69L35.53 28.69L35.53 29L39.76 29L39.76 28.69ZM65.68 28.69L65.53 28.69L65.53 29L70.93 29Q73.54 29 75.52 28.15Q77.5 27.29 78.82 25.91Q79.63 25.06 80.19 24.07Q80.54 23.45 80.8 22.77Q81.28 21.49 81.41 20.18Q81.46 19.69 81.46 19.19Q81.46 17.96 81.19 16.79Q81.02 16.1 80.77 15.44Q80.39 14.43 79.81 13.55Q79.35 12.86 78.77 12.24Q78.68 12.15 78.59 12.06Q77.34 10.79 75.58 10.03Q73.69 9.2 71.32 9.2L65.53 9.2L65.53 9.5L65.68 9.5Q65.77 9.5 65.86 9.52Q65.99 9.56 66.1 9.67Q66.28 9.83 66.4 10.07Q66.52 10.3 66.58 10.57Q66.64 10.85 66.64 11.06L66.64 27.05Q66.64 27.29 66.58 27.57Q66.52 27.82 66.42 28.04Q66.4 28.07 66.39 28.09Q66.25 28.34 66.07 28.52Q65.91 28.67 65.74 28.69Q65.71 28.69 65.68 28.69ZM88.27 28.69L88.12 28.69Q88.01 28.69 87.92 28.66Q87.81 28.62 87.71 28.52Q87.55 28.34 87.41 28.09Q87.28 27.85 87.22 27.57Q87.16 27.29 87.16 27.05L87.16 18.82Q87.49 18.89 87.86 18.93Q88.24 18.98 88.57 19Q89.89 20.98 91.22 23.03Q92.56 25.06 93.91 27.05Q94.02 27.21 94.13 27.36Q94.58 27.94 95.19 28.41Q95.2 28.42 95.21 28.43Q95.97 29 97.15 29L98.44 29L98.44 28.69Q98.38 28.69 98.32 28.69Q98.05 28.67 97.79 28.53Q97.48 28.37 97.19 28.09Q96.91 27.82 96.66 27.49Q96.4 27.16 96.19 26.86Q95.41 25.63 94.6 24.48Q93.79 23.33 93.01 22.12L90.85 18.82Q91.81 18.65 92.67 18.27Q93.52 17.89 94.15 17.28Q94.22 17.22 94.28 17.15Q94.82 16.58 95.16 15.81Q95.53 14.95 95.53 13.81Q95.53 12.33 94.84 11.32Q94.47 10.78 93.9 10.37Q92.26 9.2 89.26 9.2L84.04 9.2L84.04 9.5L84.19 9.5Q84.22 9.5 84.26 9.5Q84.43 9.52 84.58 9.67Q84.76 9.83 84.89 10.07Q84.92 10.11 84.93 10.15Q85.04 10.35 85.09 10.57Q85.15 10.85 85.15 11.06L85.15 27.05Q85.15 27.29 85.09 27.57Q85.03 27.82 84.93 28.04Q84.91 28.07 84.89 28.09Q84.76 28.34 84.58 28.52Q84.42 28.67 84.25 28.69Q84.22 28.69 84.19 28.69L84.04 28.69L84.04 29L88.27 29L88.27 28.69ZM104.65 9.2L100.36 9.2L100.36 9.5L100.51 9.5Q100.63 9.5 100.73 9.54Q100.84 9.58 100.93 9.67Q101.11 9.83 101.24 10.07Q101.29 10.15 101.33 10.23Q101.4 10.39 101.44 10.57Q101.5 10.85 101.5 11.06L101.5 27.05Q101.5 27.29 101.44 27.57Q101.43 27.63 101.41 27.68Q101.35 27.9 101.24 28.11Q101.11 28.37 100.93 28.53Q100.84 28.61 100.75 28.65Q100.64 28.69 100.51 28.69L100.36 28.69L100.36 29L104.65 29L104.65 28.69L104.5 28.69Q104.38 28.69 104.28 28.65Q104.18 28.61 104.09 28.52Q103.93 28.34 103.79 28.09Q103.77 28.07 103.76 28.04Q103.65 27.82 103.6 27.57Q103.54 27.29 103.54 27.05L103.54 11.06Q103.54 10.85 103.61 10.56Q103.69 10.27 103.81 10.05Q103.93 9.83 104.11 9.67Q104.25 9.53 104.41 9.51Q104.46 9.5 104.5 9.5L104.65 9.5L104.65 9.2ZM126.52 28.69L126.37 28.69Q126.27 28.69 126.18 28.66Q126.06 28.62 125.95 28.52Q125.77 28.34 125.65 28.08Q125.53 27.82 125.45 27.56Q125.38 27.29 125.38 27.05L125.38 19.55L126.64 18.26L132.46 27.05Q132.82 27.58 133.16 27.95Q133.26 28.05 133.36 28.14Q133.63 28.37 133.95 28.55Q134.41 28.78 135.02 28.89Q135.64 29 136.54 29L137.26 29L137.26 28.69Q137.24 28.69 137.21 28.69Q136.79 28.68 136.37 28.44Q135.94 28.18 135.59 27.85Q135.25 27.52 135.01 27.22Q134.77 26.92 134.74 26.86L128.11 16.81L134.41 10.55Q134.86 10.1 135.31 9.8Q135.76 9.5 136.18 9.5L136.33 9.5L136.33 9.2L132.67 9.2L132.67 9.5L132.82 9.5Q132.95 9.5 133.03 9.56Q133.18 9.67 133.18 9.97Q133.18 10.1 133.14 10.21Q133.1 10.34 133 10.46L125.38 18.02L125.38 11.06Q125.38 10.85 125.45 10.57Q125.53 10.3 125.66 10.07Q125.8 9.83 125.98 9.67Q126.08 9.57 126.2 9.53Q126.3 9.5 126.4 9.5L126.55 9.5L126.55 9.2L122.26 9.2L122.26 9.5L122.41 9.5Q122.47 9.5 122.52 9.51Q122.67 9.54 122.8 9.67Q122.98 9.83 123.11 10.07Q123.16 10.15 123.2 10.23Q123.27 10.39 123.31 10.57Q123.37 10.85 123.37 11.06L123.37 27.05Q123.37 27.29 123.31 27.57Q123.27 27.77 123.19 27.95Q123.16 28.02 123.11 28.09Q122.98 28.34 122.8 28.52Q122.7 28.62 122.59 28.66Q122.49 28.69 122.38 28.69L122.23 28.69L122.23 29L126.52 29L126.52 28.69ZM139.36 28.69L139.21 28.69L139.21 29L151.51 29L151.51 25.49L151.21 25.49Q151.21 25.79 151.07 26.23Q151.05 26.31 151.02 26.39Q150.89 26.73 150.66 27.03Q150.37 27.41 149.95 27.68Q149.89 27.71 149.83 27.74Q149.45 27.95 148.96 27.95L142.39 27.95L142.39 18.86L147.37 18.86Q148.01 18.86 148.43 19.16Q148.49 19.2 148.54 19.25Q148.83 19.49 148.93 19.8Q148.99 19.98 148.99 20.18L149.29 20.18L149.29 16.43L148.99 16.43Q148.99 16.63 148.93 16.82Q148.82 17.15 148.52 17.42Q148.39 17.54 148.24 17.62Q147.86 17.83 147.37 17.83L142.39 17.83L142.39 10.25L148.42 10.25Q149.4 10.25 149.88 10.74Q149.9 10.75 149.92 10.77Q150.18 11.05 150.31 11.38Q150.43 11.67 150.46 11.99L150.76 11.99L150.76 9.2L139.21 9.2L139.21 9.5L139.36 9.5Q139.48 9.5 139.58 9.54Q139.69 9.58 139.78 9.67Q139.96 9.83 140.09 10.07Q140.11 10.09 140.12 10.12Q140.24 10.33 140.31 10.57Q140.38 10.85 140.38 11.06L140.38 27.11Q140.38 27.35 140.31 27.62Q140.29 27.67 140.27 27.72Q140.21 27.93 140.09 28.12Q139.96 28.37 139.78 28.53Q139.7 28.61 139.6 28.65Q139.49 28.69 139.36 28.69ZM153.91 28.69L153.76 28.69L153.76 29L166.06 29L166.06 25.22L165.76 25.22Q165.76 25.6 165.62 26.07Q165.61 26.13 165.59 26.19Q165.45 26.59 165.21 26.94Q165.1 27.09 164.98 27.22Q164.77 27.45 164.5 27.62Q164.46 27.64 164.42 27.66Q164.03 27.88 163.51 27.88L156.94 27.88L156.94 11.06Q156.94 10.85 157.01 10.57Q157.09 10.3 157.21 10.07Q157.33 9.83 157.51 9.67Q157.61 9.57 157.73 9.53Q157.83 9.5 157.93 9.5L158.08 9.5L158.08 9.2L153.76 9.2L153.76 9.5L153.91 9.5Q154.03 9.5 154.13 9.54Q154.24 9.58 154.33 9.67Q154.51 9.83 154.64 10.07Q154.66 10.09 154.67 10.12Q154.79 10.33 154.86 10.57Q154.93 10.85 154.93 11.06L154.93 27.11Q154.93 27.35 154.86 27.62Q154.84 27.67 154.82 27.72Q154.75 27.93 154.64 28.12Q154.51 28.37 154.33 28.53Q154.25 28.61 154.15 28.65Q154.04 28.69 153.91 28.69ZM167.86 28.69L167.71 28.69L167.71 29L180.01 29L180.01 25.22L179.71 25.22Q179.71 25.6 179.57 26.07Q179.56 26.13 179.54 26.19Q179.4 26.59 179.16 26.94Q179.05 27.09 178.93 27.22Q178.72 27.45 178.45 27.62Q178.41 27.64 178.37 27.66Q177.98 27.88 177.46 27.88L170.89 27.88L170.89 11.06Q170.89 10.85 170.96 10.57Q171.04 10.3 171.16 10.07Q171.28 9.83 171.46 9.67Q171.56 9.57 171.68 9.53Q171.78 9.5 171.88 9.5L172.03 9.5L172.03 9.2L167.71 9.2L167.71 9.5L167.86 9.5Q167.98 9.5 168.08 9.54Q168.19 9.58 168.28 9.67Q168.46 9.83 168.59 10.07Q168.61 10.09 168.62 10.12Q168.74 10.33 168.81 10.57Q168.88 10.85 168.88 11.06L168.88 27.11Q168.88 27.35 168.81 27.62Q168.79 27.67 168.77 27.72Q168.71 27.93 168.59 28.12Q168.46 28.37 168.28 28.53Q168.2 28.61 168.1 28.65Q167.99 28.69 167.86 28.69ZM38.65 17.83L38.65 10.22L39.1 10.22Q40.39 10.22 41.47 10.37Q42.55 10.52 43.31 10.94Q43.82 11.21 44.18 11.62Q44.37 11.83 44.51 12.08Q44.95 12.79 44.95 13.94Q44.95 15.07 44.54 15.83Q44.14 16.57 43.53 17.04L43.53 17.04Q43.03 17.41 42.48 17.61Q42.34 17.66 42.2 17.7Q41.5 17.89 40.87 17.89Q40.09 17.89 39.56 17.88Q39.04 17.86 38.8 17.83L38.65 17.83ZM87.16 17.83L87.16 10.22L87.61 10.22Q88.9 10.22 89.98 10.37Q91.06 10.52 91.82 10.94Q92.33 11.21 92.69 11.62Q92.88 11.83 93.02 12.08Q93.46 12.79 93.46 13.94Q93.46 15.07 93.05 15.83Q92.65 16.57 92.04 17.04L92.04 17.04Q91.54 17.41 90.99 17.61Q90.85 17.66 90.71 17.7Q90.01 17.89 89.38 17.89Q88.6 17.89 88.07 17.88Q87.55 17.86 87.31 17.83L87.16 17.83ZM79.01 16.81Q79.42 18.16 79.42 19.63Q79.42 21.77 78.59 23.33Q77.93 24.58 76.95 25.49Q76.71 25.72 76.45 25.92Q76.02 26.26 75.55 26.54Q74.59 27.11 73.49 27.45Q71.86 27.95 70.24 27.95L68.65 27.95L68.65 10.25L70.18 10.25Q71.9 10.25 73.4 10.81Q73.63 10.9 73.85 11Q75.17 11.58 76.22 12.49Q76.52 12.74 76.79 13.02Q77.12 13.36 77.41 13.73Q78.22 14.75 78.73 16.01Q78.89 16.4 79.01 16.81ZM52.07 27.09Q51.94 27.37 51.94 27.71Q51.94 28.06 52.08 28.35Q52.18 28.54 52.34 28.71Q52.52 28.88 52.72 28.98Q53.01 29.11 53.35 29.11Q53.67 29.11 53.94 28.99Q54.17 28.89 54.36 28.71Q54.56 28.52 54.66 28.3Q54.79 28.03 54.79 27.71Q54.79 27.4 54.68 27.14Q54.57 26.89 54.36 26.69Q54.15 26.47 53.9 26.37Q53.65 26.26 53.35 26.26Q53.04 26.26 52.77 26.38Q52.54 26.49 52.34 26.69Q52.17 26.87 52.07 27.09Z" fill="#BB8C5F" fill-opacity="1.000000" fill-rule="evenodd"/>
</svg>
