<svg width="40.000000" height="40.000000" viewBox="0 0 40 40" fill="none" xmlns="http://www.w3.org/2000/svg" xmlns:xlink="http://www.w3.org/1999/xlink">
	<desc>
			Created with Pixso.
	</desc>
	<defs/>
	<rect id="Viber" rx="0.000000" width="39.000000" height="39.000000" transform="translate(0.500000 0.500000)" fill="#050402" fill-opacity="1.000000"/>
	<path id="Path-path" d="M25.31 16.91C25.22 16.17 25 15.59 24.6 15.08C24.08 14.43 23.42 14.03 22.43 13.8C21.79 13.64 21.53 13.66 21.3 13.87C21.09 14.07 21.04 14.47 21.21 14.73C21.33 14.91 21.46 14.98 21.83 15.05C22.33 15.15 22.67 15.26 22.98 15.44C23.64 15.83 23.95 16.42 23.98 17.39C24 17.85 24.04 17.99 24.2 18.15C24.49 18.45 25.01 18.39 25.23 18.03C25.32 17.9 25.33 17.84 25.34 17.53C25.34 17.34 25.33 17.06 25.31 16.91Z" fill="#BB8C5F" fill-opacity="1.000000" fill-rule="nonzero"/>
	<path id="Path-path" d="M27.9 17.73C27.77 15.48 26.9 13.67 25.32 12.4C24.44 11.68 23.37 11.19 22.19 10.95C21.76 10.87 20.97 10.8 20.84 10.84C20.71 10.87 20.53 11.01 20.45 11.14C20.36 11.27 20.34 11.58 20.42 11.75C20.53 12.05 20.75 12.15 21.36 12.21C22.31 12.29 23.28 12.62 24.02 13.11C24.86 13.67 25.53 14.44 25.96 15.34C26.33 16.12 26.56 17.23 26.56 18.23C26.55 18.59 26.61 18.8 26.75 18.95C26.97 19.18 27.29 19.23 27.57 19.07C27.89 18.91 27.96 18.62 27.9 17.73Z" fill="#BB8C5F" fill-opacity="1.000000" fill-rule="nonzero"/>
	<path id="Path-path" d="M30.77 26.4C30.73 26.27 30.62 26.07 30.55 25.96C30.09 25.26 27.61 23.32 26.37 22.68C25.67 22.32 25.14 22.2 24.76 22.31C24.34 22.43 24.12 22.62 23.42 23.49C23.14 23.84 22.85 24.17 22.77 24.22C22.58 24.35 22.21 24.46 21.94 24.46C21.33 24.46 20.22 24.06 19.37 23.54C18.71 23.13 17.86 22.41 17.21 21.69C16.44 20.85 15.92 20.11 15.5 19.27C14.97 18.2 14.83 17.54 15.06 17.06C15.11 16.93 15.18 16.81 15.22 16.77C15.25 16.73 15.59 16.45 15.97 16.14C16.72 15.54 16.84 15.41 16.98 15C17.16 14.48 17.11 13.95 16.84 13.42C16.63 13.01 16.08 12.13 15.69 11.56C15.16 10.81 13.86 9.21 13.6 8.99C13.13 8.61 12.53 8.54 11.87 8.8C11.17 9.07 9.86 10.13 9.3 10.87C8.8 11.54 8.6 12.01 8.57 12.64C8.55 13.15 8.59 13.37 8.86 14.02C10.98 19.18 14.14 23.3 18.49 26.57C20.76 28.28 23.11 29.58 25.55 30.47C26.98 30.99 27.6 31.02 28.32 30.59C28.63 30.41 29.39 29.62 29.82 29.05C30.52 28.11 30.78 27.67 30.85 27.32C30.9 27.08 30.86 26.67 30.77 26.4Z" fill="#BB8C5F" fill-opacity="1.000000" fill-rule="nonzero"/>
	<path id="Path-path" d="M30.54 18.25C30.49 16.98 30.28 15.93 29.83 14.77C29.39 13.62 28.95 12.88 28.11 11.87C27.31 10.92 26.69 10.38 25.71 9.77C24.35 8.93 22.68 8.38 20.82 8.15C20.18 8.06 20.04 8.07 19.84 8.2C19.46 8.45 19.47 9.06 19.85 9.31C19.97 9.38 20.09 9.41 20.59 9.48C21.38 9.59 21.88 9.68 22.47 9.85C24.81 10.49 26.61 11.8 27.81 13.74C28.81 15.36 29.23 16.98 29.17 19.04C29.15 19.74 29.16 19.87 29.27 20.04C29.47 20.35 30.01 20.41 30.29 20.15C30.46 19.99 30.49 19.87 30.53 19.27C30.54 18.96 30.55 18.5 30.54 18.25Z" fill="#BB8C5F" fill-opacity="1.000000" fill-rule="nonzero"/>
	<rect id="Viber" rx="0.000000" width="39.000000" height="39.000000" transform="translate(0.500000 0.500000)" stroke="#BB8C5F" stroke-opacity="1.000000" stroke-width="1.000000"/>
</svg>
