<svg width="40.000000" height="40.000000" viewBox="0 0 40 40" fill="none" xmlns="http://www.w3.org/2000/svg" xmlns:xlink="http://www.w3.org/1999/xlink">
	<desc>
			Created with Pixso.
	</desc>
	<defs/>
	<rect id="Telegram_black" rx="0.000000" width="39.000000" height="39.000000" transform="translate(0.500000 0.500000)" fill="#050402" fill-opacity="1.000000"/>
	<path id="Combined-Shape-path" d="M16.67 24.06L16.33 29.16C16.83 29.16 17.05 28.93 17.33 28.66L19.73 26.33L24.73 30.02C25.65 30.53 26.31 30.26 26.54 29.16L29.82 13.7C30.16 12.36 29.31 11.75 28.43 12.15L9.16 19.57C7.85 20.1 7.86 20.84 8.92 21.16L13.87 22.71L25.31 15.48C25.85 15.16 26.35 15.33 25.94 15.69L16.67 24.06L16.67 24.06Z" fill="#BB8C5F" fill-opacity="1.000000" fill-rule="nonzero"/>
	<rect id="Telegram_black" rx="0.000000" width="39.000000" height="39.000000" transform="translate(0.500000 0.500000)" stroke="#BB8C5F" stroke-opacity="1.000000" stroke-width="1.000000"/>
</svg>
