<svg width="40.000000" height="40.000000" viewBox="0 0 40 40" fill="none" xmlns="http://www.w3.org/2000/svg" xmlns:xlink="http://www.w3.org/1999/xlink">
	<desc>
			Created with Pixso.
	</desc>
	<defs/>
	<rect id="Viber" rx="0.000000" width="39.000000" height="39.000000" transform="translate(0.500000 0.500000)" fill="#050402" fill-opacity="1.000000"/>
	<path id="Subtract" d="" fill="#BB8C5F" fill-opacity="1.000000" fill-rule="nonzero"/>
	<path id="Combined-Shape-path" d="M26.32 22.61C26.24 22.49 26.04 22.41 25.75 22.26C25.45 22.11 23.99 21.4 23.72 21.3C23.44 21.2 23.24 21.15 23.05 21.44C22.85 21.74 22.28 22.41 22.11 22.61C21.93 22.81 21.76 22.83 21.46 22.68C21.16 22.54 20.21 22.22 19.07 21.21C18.19 20.42 17.59 19.45 17.42 19.15C17.25 18.85 17.4 18.69 17.55 18.54C17.68 18.41 17.85 18.2 18 18.02C18.14 17.85 18.19 17.73 18.29 17.53C18.39 17.33 18.34 17.16 18.27 17.01C18.19 16.86 17.6 15.4 17.35 14.8C17.11 14.22 16.87 14.3 16.68 14.29C16.51 14.28 16.31 14.28 16.11 14.28C15.92 14.28 15.59 14.35 15.32 14.65C15.05 14.95 14.28 15.67 14.28 17.13C14.28 18.59 15.35 20.01 15.49 20.21C15.64 20.4 17.59 23.41 20.57 24.69C21.28 25 21.83 25.18 22.26 25.32C22.98 25.54 23.62 25.51 24.14 25.44C24.71 25.35 25.89 24.72 26.14 24.02C26.39 23.33 26.39 22.73 26.32 22.61Z" fill="#BB8C5F" fill-opacity="1.000000" fill-rule="nonzero"/>
	<rect id="Viber" rx="0.000000" width="39.000000" height="39.000000" transform="translate(0.500000 0.500000)" stroke="#BB8C5F" stroke-opacity="1.000000" stroke-width="1.000000"/>
</svg>
